#!OML:ASF H:\Terrain\Patient Classification 1\Takeo\Monday\TakeoMonday.ASF
:FULLY-SPECIFIED
:DEGREES
908
root 8.60013 17.5629 0.0773803 -6.09443 44.1754 -6.73082
lowerback 17.9554 1.63927 6.9372
upperback 5.34203 3.32958 -3.8214
thorax -3.6315 1.75531 -8.76996
lowerneck -13.9244 -9.55383 -5.04778
upperneck -16.202 -11.1942 5.80981
head -2.30487 -5.17907 2.42223
rclavicle 1.78906e-014 -3.18055e-015
rhumerus 73.4012 -15.995 -33.1285
rradius 33.711
rwrist -7.0665
rhand -40.1873 40.6492
rfingers 7.12502
rthumb -13.1483 11.0838
lclavicle 1.78906e-014 -3.18055e-015
lhumerus -33.6111 -2.30631 83.7139
lradius 48.5654
lwrist 31.0291
lhand -29.6218 12.863
lfingers 7.12502
lthumb -2.9522 42.8223
rfemur -11.2823 -17.9156 22.2476
rtibia 29.548
rfoot -18.0046 -25.4301
rtoes 9.3899
lfemur -12.639 -11.3052 -14.5068
ltibia 34.7632
lfoot -16.7522 5.55861
ltoes -8.73347
909
root 8.62199 17.5879 0.112474 -6.14324 44.2986 -6.72077
lowerback 17.4241 1.68284 6.7176
upperback 5.25131 3.31324 -3.88854
thorax -3.46183 1.75099 -8.6793
lowerneck -13.9824 -9.61427 -5.01874
upperneck -16.2808 -11.2785 5.64152
head -2.33141 -5.21415 2.35969
rclavicle -1.38354e-013 1.11319e-014
rhumerus 73.3857 -16.3727 -32.2472
rradius 33.6035
rwrist -7.80912
rhand -40.0428 40.7628
rfingers 7.12502
rthumb -13.009 11.1885
lclavicle -1.38354e-013 1.11319e-014
lhumerus -33.5258 -2.05505 83.6486
lradius 47.9749
lwrist 31.04
lhand -30.0324 12.8737
lfingers 7.12502
lthumb -3.34879 42.8272
rfemur -10.5746 -17.8191 22.1911
rtibia 28.5825
rfoot -17.6344 -25.7304
rtoes 8.50567
lfemur -12.073 -11.4098 -14.5258
ltibia 33.9962
lfoot -16.0447 5.60072
ltoes -10.3184
910
root 8.63668 17.6141 0.150409 -6.39631 44.3643 -6.9229
lowerback 17.0538 1.78663 6.61512
upperback 5.19125 3.41124 -3.88138
thorax -3.31855 1.80331 -8.60527
lowerneck -13.9507 -9.8537 -5.36339
upperneck -16.5233 -11.5233 5.87235
head -2.3748 -5.31271 2.49131
rclavicle 7.196e-014 2.38542e-014
rhumerus 73.3676 -16.9336 -31.2333
rradius 33.4024
rwrist -8.41335
rhand -40.0288 40.0342
rfingers 7.12502
rthumb -12.9955 10.4589
lclavicle 7.196e-014 2.38542e-014
lhumerus -33.3443 -1.83381 83.5913
lradius 47.3855
lwrist 30.8171
lhand -29.7361 12.9928
lfingers 7.12502
lthumb -3.06263 42.9506
rfemur -9.87715 -17.5566 22.3173
rtibia 27.7404
rfoot -17.4981 -26.0333
rtoes 7.8769
lfemur -11.4217 -11.6319 -14.3631
ltibia 33.2057
lfoot -15.751 5.6369
ltoes -9.80194
911
root 8.65365 17.6413 0.192397 -6.7886 44.4145 -7.37601
lowerback 16.6385 1.84496 6.69604
upperback 5.13065 3.47689 -3.88883
thorax -3.14408 1.84174 -8.64482
lowerneck -14.453 -9.99984 -5.82597
upperneck -16.1446 -11.59 6.3741
head -2.10237 -5.32248 2.68285
rclavicle 1.07344e-014 1.27222e-014
rhumerus 73.4491 -17.5357 -30.7092
rradius 33.197
rwrist -8.61989
rhand -40.164 39.3848
rfingers 7.12502
rthumb -13.1258 9.81791
lclavicle 1.07344e-014 1.27222e-014
lhumerus -33.0126 -1.3592 83.3504
lradius 46.6877
lwrist 30.3142
lhand -28.8095 13.192
lfingers 7.12502
lthumb -2.16768 43.1608
rfemur -9.18879 -17.348 22.6709
rtibia 26.9805
rfoot -17.5822 -26.2257
rtoes 8.38812
lfemur -10.7678 -11.8952 -14.0037
ltibia 32.385
lfoot -15.7989 5.72969
ltoes -8.74315
912
root 8.67788 17.6686 0.225019 -6.44519 44.558 -7.06055
lowerback 16.0523 1.8686 6.30611
upperback 4.82996 3.39786 -4.15233
thorax -3.17734 1.78744 -8.66628
lowerneck -14.5319 -9.94905 -6.05695
upperneck -15.6635 -11.4816 6.72786
head -1.8935 -5.26759 2.81728
rclavicle 4.57205e-014 1.43125e-014
rhumerus 73.5838 -17.6248 -30.7904
rradius 32.8229
rwrist -8.45046
rhand -40.4361 38.9024
rfingers 7.12502
rthumb -13.3882 9.35256
lclavicle 4.57205e-014 1.43125e-014
lhumerus -33.2326 -1.01055 82.918
lradius 46.1683
lwrist 30.2014
lhand -28.7118 13.439
lfingers 7.12502
lthumb -2.07336 43.4087
rfemur -8.7444 -17.3711 22.4011
rtibia 26.2026
rfoot -17.5161 -26.3009
rtoes 8.96508
lfemur -10.3261 -12.1184 -14.2774
ltibia 31.5563
lfoot -15.5852 5.88267
ltoes -8.76596
